<mxfile host="app.diagrams.net" agent="Mozilla/5.0 (Windows NT 10.0; Win64; x64) AppleWebKit/537.36 (KHTML, like Gecko) Chrome/126.0.0.0 Safari/537.36" version="24.8.4">
  <diagram name="Page-1" id="e7e014a7-5840-1c2e-5031-d8a46d1fe8dd">
    <mxGraphModel dx="1134" dy="637" grid="1" gridSize="10" guides="1" tooltips="1" connect="1" arrows="1" fold="1" page="1" pageScale="1" pageWidth="1169" pageHeight="826" background="none" math="0" shadow="0">
      <root>
        <mxCell id="0" />
        <mxCell id="1" parent="0" />
        <mxCell id="2" value="Thread 1" style="swimlane;whiteSpace=wrap" parent="1" vertex="1">
          <mxGeometry x="164.5" y="128" width="280" height="570" as="geometry" />
        </mxCell>
        <mxCell id="7" value="Usuario abre o &#xa;aplicativo&#xa;" style="" parent="2" vertex="1">
          <mxGeometry x="60" y="110" width="110" height="50" as="geometry" />
        </mxCell>
        <mxCell id="8" value="tela inicial" style="" parent="2" vertex="1">
          <mxGeometry x="60" y="220" width="110" height="50" as="geometry" />
        </mxCell>
        <mxCell id="9" value="" style="endArrow=open;strokeColor=#FF0000;endFill=1;rounded=0" parent="2" source="7" target="8" edge="1">
          <mxGeometry relative="1" as="geometry" />
        </mxCell>
        <mxCell id="10" value="usuario mostra a &#xa;água pela sua &#xa;câmera" style="" parent="2" vertex="1">
          <mxGeometry x="60" y="325" width="110" height="50" as="geometry" />
        </mxCell>
        <mxCell id="11" value="" style="endArrow=open;strokeColor=#FF0000;endFill=1;rounded=0" parent="2" source="8" target="10" edge="1">
          <mxGeometry relative="1" as="geometry" />
        </mxCell>
        <mxCell id="3" value="Thread 2" style="swimlane;whiteSpace=wrap" parent="1" vertex="1">
          <mxGeometry x="444.5" y="128" width="280" height="570" as="geometry" />
        </mxCell>
        <mxCell id="15" value="programa manda a &#xa;foto com zoom para &#xa;um &quot;subprograma&quot;" style="" parent="3" vertex="1">
          <mxGeometry x="15" y="110" width="120" height="50" as="geometry" />
        </mxCell>
        <mxCell id="16" value="programa da um&#xa;zoom na imagem &#xa;para analizar o Ph" style="" parent="3" vertex="1">
          <mxGeometry x="20" y="220" width="110" height="50" as="geometry" />
        </mxCell>
        <mxCell id="17" value="" style="endArrow=open;strokeColor=#FF0000;endFill=1;rounded=0;entryX=0.5;entryY=1;entryDx=0;entryDy=0;exitX=0.5;exitY=0;exitDx=0;exitDy=0;" parent="3" source="16" target="15" edge="1">
          <mxGeometry relative="1" as="geometry">
            <mxPoint x="115.5" y="192" as="sourcePoint" />
          </mxGeometry>
        </mxCell>
        <mxCell id="18" value="programa recebe a&#xa;foto/video" style="" parent="3" vertex="1">
          <mxGeometry x="20" y="325" width="110" height="50" as="geometry" />
        </mxCell>
        <mxCell id="19" value="" style="endArrow=open;strokeColor=#FF0000;endFill=1;rounded=0;entryX=0.5;entryY=1;entryDx=0;entryDy=0;exitX=0.5;exitY=0;exitDx=0;exitDy=0;" parent="3" source="18" target="16" edge="1">
          <mxGeometry relative="1" as="geometry">
            <mxPoint x="105.5" y="302" as="sourcePoint" />
          </mxGeometry>
        </mxCell>
        <mxCell id="30" value="subprograma analisa&#xa; o Ph da água, &#xa;comparando a foto&#xa;com as outras fotos&#xa;do sistema e&#xa; manda pro programa" style="" parent="3" vertex="1">
          <mxGeometry x="139.5" y="397.5" width="110" height="132.5" as="geometry" />
        </mxCell>
        <mxCell id="5G-Jg46CKDymM8WMe1T5-47" value="" style="endArrow=classic;startArrow=classic;html=1;rounded=0;exitX=0.5;exitY=0;exitDx=0;exitDy=0;entryX=1;entryY=0.5;entryDx=0;entryDy=0;fillColor=#f8cecc;strokeColor=#FF0000;" edge="1" parent="3" source="30" target="15">
          <mxGeometry width="50" height="50" relative="1" as="geometry">
            <mxPoint x="-54.5" y="302" as="sourcePoint" />
            <mxPoint x="-4.5" y="252" as="targetPoint" />
            <Array as="points">
              <mxPoint x="265.5" y="142" />
            </Array>
          </mxGeometry>
        </mxCell>
        <mxCell id="4" value="Thread 3" style="swimlane;whiteSpace=wrap" parent="1" vertex="1">
          <mxGeometry x="724.5" y="128" width="280" height="570" as="geometry" />
        </mxCell>
        <mxCell id="33" value="programa cria a &#xa;resposta &#xa;(se é alcalina, ácida &#xa;ou básica)&#xa;e manda ao usuario" style="" parent="4" vertex="1">
          <mxGeometry x="90" y="300" width="110" height="155" as="geometry" />
        </mxCell>
        <mxCell id="20" value="" style="endArrow=open;strokeColor=#FF0000;endFill=1;rounded=0" parent="1" source="10" target="18" edge="1">
          <mxGeometry relative="1" as="geometry" />
        </mxCell>
        <mxCell id="37" value="" style="edgeStyle=none;strokeColor=#FF0000;endArrow=open;endFill=1;rounded=0;exitX=1;exitY=0.5;exitDx=0;exitDy=0;" parent="1" target="33" edge="1" source="30">
          <mxGeometry width="100" height="100" relative="1" as="geometry">
            <mxPoint x="694.5" y="557.5" as="sourcePoint" />
            <mxPoint x="814.5" y="557.5" as="targetPoint" />
          </mxGeometry>
        </mxCell>
      </root>
    </mxGraphModel>
  </diagram>
</mxfile>
